<svg id="routeone-logo" xmlns="http://www.w3.org/2000/svg" viewBox="0 0 89.68 90" preserveAspectRatio="xMinYMin meet"><defs><style>.cls-1{fill:#fff;}</style></defs><title>routeone-icon-white</title><path class="cls-1" d="M19.46,8.07m67.35,21.2C37,34.6,27.73,78.26,26.5,85.93c1.13,0.47,1.41.65,3,1.24A40.74,40.74,0,0,0,44.79,90C70.53,90,89.68,69.78,89.68,45A44.8,44.8,0,0,0,86.81,29.27Zm-0.65-1.62A44.76,44.76,0,1,0,8.75,71.27l0.07-.15C31.18,27.88,76.35,27.25,86.15,27.64ZM18.64,81.31C34.91,29.2,86.47,29.1,86.26,28.37c-58.9,3.15-71.2,50-71.2,50C16.67,79.84,18.64,81.31,18.64,81.31Z"/></svg>