<svg id="_Layer_" data-name="&lt;Layer&gt;" xmlns="http://www.w3.org/2000/svg" viewBox="0 0 411.39 90"><defs><style>.cls-1{fill:#fff;}.cls-2{fill:#0075af;}.cls-3{fill:#009959;}.cls-4{fill:#1a75cf;}</style></defs><title>routeone-logo-color</title><path class="cls-1" d="M89.7,45.2A44.66,44.66,0,1,1,45.18.41,44.56,44.56,0,0,1,89.7,45.2Z"/><path class="cls-2" d="M19.46,8.07"/><path class="cls-3" d="M86.81,29.27C37,34.6,27.73,78.26,26.5,85.93,33.8,89,38.27,90,44.79,90,70.53,90,89.68,69.78,89.68,45A44.8,44.8,0,0,0,86.81,29.27Z"/><path class="cls-4" d="M86.15,27.64A44.78,44.78,0,0,0,0,44.78,44.32,44.32,0,0,0,8.75,71.23c0-.06,0,0,0.07-0.11C31.18,27.88,76.35,27.25,86.15,27.64Z"/><path class="cls-4" d="M18.64,81.27C34.91,29.16,86.47,29.1,86.26,28.37c-58.9,3.15-71.2,50-71.2,50C16.67,79.81,18.64,81.27,18.64,81.27Z"/><path class="cls-4" d="M105,27.95h16.84q7.68,0,12.14,3.75a12.53,12.53,0,0,1,4.46,10.11,16.33,16.33,0,0,1-2,7.53q-2,3.92-7.53,6.18l14.32,19.73H130.56L117.26,56.93H116V75.25H105V27.95ZM116,36.38V48.69h2.39q8.66,0,8.66-6.53a4.87,4.87,0,0,0-2.26-4.23,10.89,10.89,0,0,0-6.25-1.56H116Z"/><path class="cls-4" d="M140.69,59.81a15.23,15.23,0,0,1,4.93-11.71q4.93-4.54,12.65-4.55a16.81,16.81,0,0,1,12,4.62,15.2,15.2,0,0,1,4.87,11.48,15.24,15.24,0,0,1-4.87,11.59,17.11,17.11,0,0,1-12.21,4.59q-8.26,0-12.85-4.86A15.79,15.79,0,0,1,140.69,59.81Zm24.72,0a7.71,7.71,0,0,0-2.21-5.49A6.85,6.85,0,0,0,158,52a7.51,7.51,0,0,0-7.46,7.48,8,8,0,0,0,2.18,5.69,7,7,0,0,0,10.43.07A7.51,7.51,0,0,0,165.4,59.82Z"/><path class="cls-4" d="M179,44.23h10.08V59.17a8.22,8.22,0,0,0,1.77,5.4,5.44,5.44,0,0,0,4.38,2.15,6,6,0,0,0,4.66-2.09,7.53,7.53,0,0,0,1.89-5.23V44.23h10.08V62.35A11.93,11.93,0,0,1,207.12,72a17.94,17.94,0,0,1-11.75,3.87q-7.46,0-11.92-3.89A13.06,13.06,0,0,1,179,61.58V44.23Z"/><path class="cls-4" d="M271.59,62H247.75a7.14,7.14,0,0,0,2.12,4.82,6.28,6.28,0,0,0,4.5,1.87,8.23,8.23,0,0,0,7.21-3.87l9.14,2.81q-5.08,8.24-15.82,8.25-7.89,0-12.56-4.41t-4.66-11.88a14.86,14.86,0,0,1,4.92-11.33,17.11,17.11,0,0,1,12.1-4.56,16.43,16.43,0,0,1,12.06,4.81,16.25,16.25,0,0,1,4.84,12V62Zm-23.84-6.2h13.57q-1.42-5.9-6.48-5.91A7.38,7.38,0,0,0,250,51.4,6.51,6.51,0,0,0,247.75,55.77Z"/><path class="cls-4" d="M277,51.63a22.44,22.44,0,0,1,7.49-17.34,25.49,25.49,0,0,1,17.76-6.83q11.36,0,18.79,6.87a22.65,22.65,0,0,1,7.43,17.37A22.66,22.66,0,0,1,321.08,69q-7.36,6.86-18.53,6.87T284.17,69A22.89,22.89,0,0,1,277,51.63Zm25.8-14.57a13.26,13.26,0,0,0-10.4,4.09,15.17,15.17,0,0,0-4,10.83,14.31,14.31,0,0,0,4,10.42,13.62,13.62,0,0,0,10.17,4.12A13.9,13.9,0,0,0,313,62.45a14.72,14.72,0,0,0,4-10.73q0-6.6-3.89-10.59A14,14,0,0,0,302.75,37.06Z"/><path class="cls-4" d="M341.59,44.23v3.66q5.07-4.43,10.64-4.43a9.89,9.89,0,0,1,7.87,3.65,13.85,13.85,0,0,1,3.12,9.33V75.25H353.13V57.87a6.77,6.77,0,0,0-1.57-4.54,4.83,4.83,0,0,0-3.8-1.83,5.33,5.33,0,0,0-4.44,2.33,9.8,9.8,0,0,0-1.73,6V75.25h-10v-31h10Z"/><path class="cls-4" d="M401.06,62H377.21a7.17,7.17,0,0,0,2.12,4.82,6.25,6.25,0,0,0,4.5,1.87,8.21,8.21,0,0,0,7.2-3.87l9.15,2.81q-5.1,8.24-15.82,8.25-7.9,0-12.56-4.41t-4.67-11.88A14.86,14.86,0,0,1,372,48.21a17.12,17.12,0,0,1,12.11-4.56,16.49,16.49,0,0,1,16.91,16.84V62Zm-23.85-6.2h13.58q-1.41-5.9-6.48-5.91a7.36,7.36,0,0,0-4.8,1.55A6.55,6.55,0,0,0,377.21,55.77Z"/><path class="cls-4" d="M229.27,55.06V66.5a3.31,3.31,0,0,0,3.44,2.24c2.88,0,3.48-.59,3.48-0.59v7a19.68,19.68,0,0,1-6.35,1.37c-3,0-8.93-2.06-8.93-7.54V51.66h-6.18v-7.4H221V35.12h8.22v9.14h6.23v7.42h-6.21v3.39Z"/><path class="cls-4" d="M407.85,69a3.61,3.61,0,1,1-3.58,3.6,3.55,3.55,0,0,1,3.58-3.6h0Zm0,0.56a3.05,3.05,0,0,0,0,6.1,3.05,3.05,0,0,0,0-6.1h0Zm-0.67,5.14h-0.64v-4a7.2,7.2,0,0,1,1.14-.1,2.11,2.11,0,0,1,1.25.3,1,1,0,0,1,.37.83,1,1,0,0,1-.78,1v0a1,1,0,0,1,.67,1,3.32,3.32,0,0,0,.26,1h-0.67a3,3,0,0,1-.27-1,0.75,0.75,0,0,0-.86-0.7h-0.45v1.73Zm0-2.22h0.46a0.8,0.8,0,0,0,1-.69,0.79,0.79,0,0,0-1-.7,3.12,3.12,0,0,0-.46,0v1.36Z"/></svg>